#!OML:ASF E:\inclinewalkrobotboard\Project 1\Capture day 1\Session 1\subject1.ASF
:FULLY-SPECIFIED
:DEGREES
400
root 7.8435 23.1762 -13.1222 -170.622 3.34072 179.87
lowerback -7.66276 0.284909 -5.79345
upperback 2.8087 0.879392 1.98923
thorax 7.16794 0.122459 5.49857
lowerneck -3.0538 -2.79233 -6.93882
upperneck 32.3159 -1.90068 10.7888
head 11.0769 0.951095 5.33827
rclavicle 1.03368e-014 -1.98785e-015
rhumerus -46.1852 -41.5254 -59.0688
rradius 17.569
rwrist 25.5888
rhand -15.7896 -36.9804
rfingers 7.12502
rthumb 10.4031 -66.703
lclavicle 1.03368e-014 -1.98785e-015
lhumerus -29.7656 13.7718 83.1284
lradius 15.4197
lwrist -29.6182
lhand -24.933 -22.8369
lfingers 7.12502
lthumb 1.57627 7.13699
rfemur -11.7017 7.00163 18.2154
rtibia 9.13639
rfoot -14.7446 1.59027
rtoes -28.5385
lfemur -10.0049 -8.44615 -20.8731
ltibia 9.56026
lfoot -20.1648 3.57088
ltoes -61.9881
401
root 7.85708 23.173 -13.1529 -170.663 3.225 179.606
lowerback -7.87881 0.369452 -6.01645
upperback 2.85413 1.03531 1.88507
thorax 7.31971 0.183448 5.54145
lowerneck -2.56433 -2.77593 -6.49018
upperneck 31.1237 -1.99073 10.2268
head 10.5138 0.810392 4.93849
rclavicle -4.12478e-015 1.23246e-014
rhumerus -46.0895 -41.3378 -59.3274
rradius 17.6994
rwrist 25.3356
rhand -16.3295 -36.2371
rfingers 7.12502
rthumb 9.88228 -65.9852
lclavicle -4.12478e-015 1.23246e-014
lhumerus -29.6727 13.8603 83.2313
lradius 15.475
lwrist -29.7518
lhand -25.2621 -23.1212
lfingers 7.12502
lthumb 1.25843 6.85486
rfemur -11.3668 6.51297 17.9695
rtibia 8.87798
rfoot -14.7143 1.93573
rtoes -28.5364
lfemur -9.76831 -8.5338 -21.2077
ltibia 9.40758
lfoot -20.3031 3.67913
ltoes -62.2494
402
root 7.87667 23.1724 -13.1673 -170.631 3.33081 179.609
lowerback -7.8671 0.514213 -6.09603
upperback 2.79432 1.23585 1.86059
thorax 7.21955 0.283662 5.58573
lowerneck -2.21956 -2.77018 -6.1294
upperneck 30.0776 -2.0735 9.69562
head 10.0493 0.67313 4.59434
rclavicle 3.62782e-015 1.98785e-015
rhumerus -45.8406 -40.9587 -59.7238
rradius 17.625
rwrist 25.1135
rhand -16.4335 -36.2377
rfingers 7.12502
rthumb 9.78196 -65.9905
lclavicle 3.62782e-015 1.98785e-015
lhumerus -29.817 13.5385 83.3969
lradius 15.8439
lwrist -29.8534
lhand -25.5069 -23.3939
lfingers 7.12502
lthumb 1.02197 6.5834
rfemur -11.3896 6.52796 18.0121
rtibia 8.89476
rfoot -14.7446 2.06585
rtoes -28.3604
lfemur -9.71581 -8.47002 -21.0793
ltibia 9.32344
lfoot -20.265 3.86584
ltoes -62.3027
403
root 7.89861 23.172 -13.172 -170.52 3.63918 179.445
lowerback -7.72478 0.672332 -6.43554
upperback 2.60769 1.47056 1.7897
thorax 6.89946 0.401595 5.72485
lowerneck -1.76647 -2.75675 -5.74435
upperneck 29.0092 -2.12253 9.09817
head 9.56249 0.54721 4.23621
rclavicle -1.39149e-014 -5.1684e-015
rhumerus -45.7082 -40.251 -60.2999
rradius 17.7987
rwrist 24.7637
rhand -16.2412 -36.846
rfingers 7.12502
rthumb 9.96749 -66.59
lclavicle -1.39149e-014 -5.1684e-015
lhumerus -30.049 12.9195 83.6669
lradius 16.3602
lwrist -29.4408
lhand -25.3289 -23.5048
lfingers 7.12502
lthumb 1.19392 6.47164
rfemur -11.7581 7.14597 17.8497
rtibia 9.22708
rfoot -14.9018 1.7617
rtoes -28.1344
lfemur -9.7753 -8.43469 -21.1239
ltibia 9.23558
lfoot -20.2576 4.14311
ltoes -62.3701
404
root 7.90932 23.1733 -13.1924 -170.62 3.47325 178.996
lowerback -7.61869 0.67151 -6.83207
upperback 2.53256 1.51071 1.60676
thorax 6.74965 0.41575 5.75454
lowerneck -1.22882 -2.69818 -5.16616
upperneck 27.8126 -2.10001 8.37114
head 9.01555 0.455818 3.81109
rclavicle -5.41688e-015 -5.96354e-016
rhumerus -45.9252 -40.0448 -60.443
rradius 17.9567
rwrist 24.7892
rhand -16.2956 -36.5208
rfingers 7.12502
rthumb 9.91497 -66.2673
lclavicle -5.41688e-015 -5.96354e-016
lhumerus -30.1628 11.975 84.077
lradius 16.9784
lwrist -28.548
lhand -24.9794 -23.429
lfingers 7.12502
lthumb 1.53143 6.54521
rfemur -11.5123 7.15252 17.4079
rtibia 9.15412
rfoot -15.0808 1.55087
rtoes -28.141
lfemur -9.52521 -8.64443 -21.6942
ltibia 9.10593
lfoot -20.4268 4.10932
ltoes -62.5307
405
root 7.91564 23.1714 -13.2384 -170.78 3.10789 178.637
lowerback -7.91438 0.736374 -6.9379
upperback 2.65443 1.65122 1.35161
thorax 7.03471 0.470795 5.57207
lowerneck -0.950785 0.954256 -4.52443
upperneck 25.9629 -3.46888 8.96801
head 8.35946 -2.38443 3.40488
rclavicle -6.01324e-015 2.78299e-015
rhumerus -46.2988 -40.5347 -60.2745
rradius 17.9615
rwrist 25.1261
rhand -16.2381 -35.9998
rfingers 7.12502
rthumb 9.97049 -65.7437
lclavicle -6.01324e-015 2.78299e-015
lhumerus -30.0731 10.2774 84.6935
lradius 17.7032
lwrist -27.3359
lhand -24.7705 -23.1116
lfingers 7.12502
lthumb 1.7332 6.8611
rfemur -10.8203 6.40223 17.1091
rtibia 8.73434
rfoot -15.1358 1.95253
rtoes -27.8809
lfemur -8.93056 -8.8575 -22.3209
ltibia 8.75091
lfoot -20.624 3.97348
ltoes -62.7431
406
root 7.94043 23.1714 -13.2213 -170.468 3.19384 178.762
lowerback -7.80669 0.849742 -6.9658
upperback 2.61025 1.79109 1.42696
thorax 6.90159 0.543365 5.68169
lowerneck -1.41065 0.712539 -4.36324
upperneck 24.9972 -3.23812 8.26765
head 8.08921 -2.20902 3.1498
rclavicle -4.72114e-015 3.37934e-015
rhumerus -45.875 -40.8672 -60.2958
rradius 17.7021
rwrist 25.829
rhand -16.1532 -35.5263
rfingers 7.12502
rthumb 10.0523 -65.2663
lclavicle -4.72114e-015 3.37934e-015
lhumerus -29.8795 9.19319 85.4133
lradius 18.4214
lwrist -26.1398
lhand -25.0471 -23.3366
lfingers 7.12502
lthumb 1.46604 6.63815
rfemur -11.4894 6.82399 17.2799
rtibia 9.17052
rfoot -15.1132 1.56563
rtoes -27.9567
lfemur -9.46019 -8.83628 -21.9033
ltibia 8.9054
lfoot -20.6455 4.13951
ltoes -62.8081
407
root 7.96297 23.1819 -13.1856 -170.312 3.07315 179.03
lowerback -7.13322 1.42523 -6.53767
upperback 2.30791 2.47447 1.13127
thorax 6.11452 0.94553 5.16921
lowerneck 2.05774 0.878577 -7.7967
upperneck 18.2406 -3.04241 15.2561
head 5.33125 -1.92664 6.01903
rclavicle 6.75868e-015 -1.76918e-014
rhumerus -47.0849 -41.9018 -59.7131
rradius 17.9072
rwrist 25.9183
rhand -16.3333 -35.0238
rfingers 7.12502
rthumb 9.87858 -64.7721
lclavicle 6.75868e-015 -1.76918e-014
lhumerus -29.9504 6.25301 86.0497
lradius 19.0726
lwrist -24.6846
lhand -25.4633 -23.8855
lfingers 7.12502
lthumb 1.06408 6.09158
rfemur -12.0898 7.42529 17.5939
rtibia 9.64285
rfoot -15.0986 0.755678
rtoes -28.4074
lfemur -10.0838 -8.91312 -21.2246
ltibia 9.29235
lfoot -20.426 4.16171
ltoes -62.7327
408
root 7.97407 23.1784 -13.218 -170.1 2.48992 179.028
lowerback -7.44786 1.00418 -6.58573
upperback 2.16961 1.91864 1.34664
thorax 6.21526 0.663095 5.37096
lowerneck 1.82045 0.998104 -8.19123
upperneck 17.7331 -2.51178 14.6965
head 5.15466 -1.66039 5.91435
rclavicle -5.06901e-015 6.55989e-015
rhumerus -46.2504 -40.5576 -60.6367
rradius 17.9363
rwrist 25.4178
rhand -16.5386 -35.9076
rfingers 7.12502
rthumb 9.68055 -65.6652
lclavicle -5.06901e-015 6.55989e-015
lhumerus -30.3137 6.87169 86.2376
lradius 19.4909
lwrist -24.6826
lhand -25.652 -24.0022
lfingers 7.12502
lthumb 0.881888 5.97567
rfemur -11.8594 6.78894 17.7087
rtibia 9.30262
rfoot -15.188 0.816916
rtoes -28.4455
lfemur -10.0841 -8.9779 -21.2596
ltibia 9.13075
lfoot -20.2678 3.61326
ltoes -62.7068
